<svg width="48" height="48" viewBox="0 0 48 48" fill="none" xmlns="http://www.w3.org/2000/svg">
  <path
    d="M22.6881 27V20.4545H25.1938C25.6668 20.4545 26.0599 20.5291 26.3731 20.6783C26.6884 20.8253 26.9239 21.0266 27.0794 21.2823C27.2371 21.538 27.3159 21.8278 27.3159 22.1516C27.3159 22.418 27.2648 22.646 27.1625 22.8356C27.0602 23.0231 26.9228 23.1754 26.7502 23.2926C26.5776 23.4098 26.3848 23.494 26.1717 23.5451V23.609C26.404 23.6218 26.6266 23.6932 26.8397 23.8232C27.0549 23.951 27.2307 24.1321 27.3671 24.3665C27.5034 24.6009 27.5716 24.8842 27.5716 25.2166C27.5716 25.5554 27.4896 25.8601 27.3255 26.1307C27.1614 26.3991 26.9143 26.6112 26.584 26.7667C26.2538 26.9222 25.8383 27 25.3376 27H22.6881ZM23.8738 26.0092H25.149C25.5794 26.0092 25.8894 25.9272 26.0791 25.7631C26.2708 25.5969 26.3667 25.3839 26.3667 25.1239C26.3667 24.93 26.3188 24.7553 26.2229 24.5998C26.127 24.4421 25.9906 24.3185 25.8138 24.229C25.6369 24.1374 25.426 24.0916 25.181 24.0916H23.8738V26.0092ZM23.8738 23.2383H25.0467C25.2513 23.2383 25.4356 23.201 25.5997 23.1264C25.7637 23.0497 25.8926 22.9421 25.9864 22.8036C26.0823 22.663 26.1302 22.4968 26.1302 22.305C26.1302 22.0515 26.0407 21.8427 25.8617 21.6786C25.6849 21.5146 25.4217 21.4325 25.0723 21.4325H23.8738V23.2383Z"
    fill="#808080" />
  <path
    d="M40.404 22.663H39.2087C39.1746 22.467 39.1117 22.2933 39.0201 22.142C38.9285 21.9886 38.8145 21.8587 38.6781 21.7521C38.5418 21.6456 38.3862 21.5657 38.2115 21.5124C38.0389 21.457 37.8525 21.4293 37.6522 21.4293C37.2964 21.4293 36.981 21.5188 36.7062 21.6978C36.4313 21.8746 36.2161 22.1346 36.0606 22.4776C35.9051 22.8185 35.8273 23.2351 35.8273 23.7273C35.8273 24.228 35.9051 24.6499 36.0606 24.9929C36.2183 25.3338 36.4335 25.5916 36.7062 25.7663C36.981 25.9389 37.2953 26.0252 37.649 26.0252C37.845 26.0252 38.0283 25.9996 38.1987 25.9485C38.3713 25.8952 38.5258 25.8175 38.6622 25.7152C38.8006 25.6129 38.9168 25.4872 39.0105 25.3381C39.1064 25.1889 39.1725 25.0185 39.2087 24.8267L40.404 24.8331C40.3592 25.1442 40.2623 25.4361 40.1131 25.7088C39.9661 25.9815 39.7733 26.2223 39.5347 26.4311C39.296 26.6378 39.0169 26.7997 38.6973 26.9169C38.3777 27.032 38.0229 27.0895 37.633 27.0895C37.0578 27.0895 36.5443 26.9563 36.0926 26.69C35.6408 26.4237 35.285 26.0391 35.0251 25.5362C34.7651 25.0334 34.6352 24.4304 34.6352 23.7273C34.6352 23.022 34.7662 22.419 35.0283 21.9183C35.2903 21.4155 35.6472 21.0309 36.0989 20.7646C36.5506 20.4982 37.062 20.3651 37.633 20.3651C37.9974 20.3651 38.3362 20.4162 38.6494 20.5185C38.9626 20.6207 39.2417 20.771 39.4867 20.9691C39.7318 21.1651 39.9331 21.4059 40.0908 21.6914C40.2506 21.9748 40.355 22.2987 40.404 22.663Z"
    fill="#808080" />
  <rect x="2" y="18" width="17" height="12" rx="4" fill="#BFDBFE" />
  <path
    d="M8.7298 27H7.46418L9.76851 20.4545H11.2323L13.5398 27H12.2742L10.526 21.7969H10.4748L8.7298 27ZM8.77135 24.4336H12.2231V25.386H8.77135V24.4336Z"
    fill="#0D0D0D" />
</svg>
